<svg id="Layer_1" data-name="Layer 1" xmlns="http://www.w3.org/2000/svg" viewBox="0 0 336.78 74.5"><defs><style>.cls-1{fill:none;}.cls-2{fill:#004799;}.cls-3{fill:#85888c;}</style></defs><title>marvicon_logo_ro</title><polygon class="cls-1" points="84.84 37.89 84.84 22.57 76.28 37.89 84.84 37.89"/><path class="cls-1" d="M271.17,346.78a3.49,3.49,0,0,0-1.06-.93,2.78,2.78,0,0,0-1.39-.35h-7.53l-4,13.36h6a12.28,12.28,0,0,0,2.54-.22,6.1,6.1,0,0,0,1.69-.6,4.4,4.4,0,0,0,1.15-.9l1-1.06a10,10,0,0,0,1.94-3.05,9.53,9.53,0,0,0,.68-3.6,4.16,4.16,0,0,0-.25-1.36A4.57,4.57,0,0,0,271.17,346.78Z" transform="translate(-139.98 -324.89)"/><path class="cls-1" d="M408.58,346.29a8.29,8.29,0,0,0-2.1-.46q-1.15-.11-2-.11t-2,.11a9.05,9.05,0,0,0-2.1.46,6.56,6.56,0,0,0-1.83,1,3.62,3.62,0,0,0-1.2,1.66q-1.64,4.25-3.05,8.78t-2.4,9.16a3.68,3.68,0,0,0,0,1.94,3.11,3.11,0,0,0,.84,1.42,3.66,3.66,0,0,0,1.53.85,5.23,5.23,0,0,0,2,.16q1,0,2.37-.08a13,13,0,0,0,2.56-.41,6.08,6.08,0,0,0,2.15-1,3.24,3.24,0,0,0,1.2-2q1.91-4.53,3.38-9.08a80,80,0,0,0,2.4-9.3,2.38,2.38,0,0,0-.27-2A3.2,3.2,0,0,0,408.58,346.29Z" transform="translate(-139.98 -324.89)"/><path class="cls-2" d="M190.79,338.14a9.17,9.17,0,0,0-4.14,1,10.33,10.33,0,0,0-3.44,2.75l-7.8,9.82-1.8-9.33a4.5,4.5,0,0,0-.79-1.75,6.09,6.09,0,0,0-1.39-1.34,6.36,6.36,0,0,0-1.8-.87,6.71,6.71,0,0,0-2-.3H155.45l-12.22,40.63h12.05l8.51-28.25,3.71,19.41h2.67L185.77,351l-8.4,27.76h12.22l12.16-40.63Z" transform="translate(-139.98 -324.89)"/><path class="cls-2" d="M222.75,338.24a7.57,7.57,0,0,0-2.34.93,15,15,0,0,0-3,2.32,21.74,21.74,0,0,0-3.3,4.34l-19.74,32.94H207.2l4.91-8.62H224.6v8.62h11.29V338.08H224.11A9.84,9.84,0,0,0,222.75,338.24Zm2.07,24.54h-8.56l8.56-15.32Z" transform="translate(-139.98 -324.89)"/><path class="cls-2" d="M280.06,340.37a11.53,11.53,0,0,0-3.71-1.69,16.25,16.25,0,0,0-4.14-.55H251.65l-12.27,40.63h11.78l3.49-11.56h7.53l3.93,11.56h11.45l-4.14-12.65a15,15,0,0,0,3.79-2.86,23.73,23.73,0,0,0,3-3.74,21.27,21.27,0,0,0,2.7-5.84,22.64,22.64,0,0,0,.9-6.33,7.87,7.87,0,0,0-1-4.09A9.25,9.25,0,0,0,280.06,340.37ZM271.42,353a10,10,0,0,1-1.94,3.05l-1,1.06a4.4,4.4,0,0,1-1.15.9,6.1,6.1,0,0,1-1.69.6,12.28,12.28,0,0,1-2.54.22h-6l4-13.36h7.53a2.78,2.78,0,0,1,1.39.35,3.49,3.49,0,0,1,1.06.93,4.57,4.57,0,0,1,.68,1.28,4.16,4.16,0,0,1,.25,1.36A9.53,9.53,0,0,1,271.42,353Z" transform="translate(-139.98 -324.89)"/><polygon class="cls-2" points="193.53 13.24 181.09 53.87 193.42 53.87 205.69 13.24 193.53 13.24"/><path class="cls-3" d="M357,368.84a2.57,2.57,0,0,1-1.39-.76,1.57,1.57,0,0,1-.46-1.36,44.49,44.49,0,0,1,1.91-9,43.63,43.63,0,0,1,3.71-8.37,3.2,3.2,0,0,1,1.09-1.17,2.74,2.74,0,0,1,1.53-.46h18.05l2.95-9.76H360.28a10.85,10.85,0,0,0-5.45,1.36,15.54,15.54,0,0,0-4.28,3.63,24.07,24.07,0,0,0-3.25,5.15,53.36,53.36,0,0,0-2.37,5.92,59.87,59.87,0,0,0-1.66,6q-.65,2.95-1.09,5.24a17.6,17.6,0,0,0-.22,4.42,14.17,14.17,0,0,0,1,4.36,9,9,0,0,0,2.43,3.44,7.3,7.3,0,0,0,4.17,1.69,86.64,86.64,0,0,0,22.74-.49l2.89-10.09a48.55,48.55,0,0,1-9,.9A61.83,61.83,0,0,1,357,368.84Z" transform="translate(-139.98 -324.89)"/><path class="cls-3" d="M423.11,346.92v-1.47a7.86,7.86,0,0,0-2.67-4.5,12.66,12.66,0,0,0-4.5-2.26,23.17,23.17,0,0,0-5.35-.82q-2.81-.11-5.21-.11a40.16,40.16,0,0,0-8.29.74,22.92,22.92,0,0,0-5.7,1.91,12.43,12.43,0,0,0-3.54,2.59,9.47,9.47,0,0,0-1.83,2.78q-1,2.51-2.07,5.37T382,357q-.9,3-1.58,6a47.15,47.15,0,0,0-1,5.86,9.68,9.68,0,0,0,.41,4.17,7.32,7.32,0,0,0,1.88,2.89,9.34,9.34,0,0,0,3,1.85,19.14,19.14,0,0,0,3.68,1,29.06,29.06,0,0,0,4,.44q2,.08,3.87.08,2.56,0,5.1-.22t5.1-.65a14,14,0,0,0,5.84-2.45,12.07,12.07,0,0,0,4-4.91,87,87,0,0,0,4.2-11.92A106.4,106.4,0,0,0,423.11,346.92Zm-12.76,2.45a80,80,0,0,1-2.4,9.3q-1.47,4.55-3.38,9.08a3.24,3.24,0,0,1-1.2,2,6.08,6.08,0,0,1-2.15,1,13,13,0,0,1-2.56.41q-1.34.08-2.37.08a5.23,5.23,0,0,1-2-.16,3.66,3.66,0,0,1-1.53-.85,3.11,3.11,0,0,1-.84-1.42,3.68,3.68,0,0,1,0-1.94q1-4.64,2.4-9.16t3.05-8.78a3.62,3.62,0,0,1,1.2-1.66,6.56,6.56,0,0,1,1.83-1,9.05,9.05,0,0,1,2.1-.46q1.09-.11,2-.11t2,.11a8.29,8.29,0,0,1,2.1.46,3.2,3.2,0,0,1,1.5,1.09A2.38,2.38,0,0,1,410.35,349.37Z" transform="translate(-139.98 -324.89)"/><path class="cls-3" d="M461,338.14l-7.2,23.56-3.71-19.31a4.48,4.48,0,0,0-.79-1.75,6.08,6.08,0,0,0-1.39-1.34,6.35,6.35,0,0,0-1.8-.87,6.7,6.7,0,0,0-2-.3H431.94l-12.22,40.63h12.05l8.51-28.25L446,378.76h14.51l12.16-40.63Z" transform="translate(-139.98 -324.89)"/><path class="cls-2" d="M476.76,324.89H321.95l-9.84,17.35-15.3,27.47V350H285.73v28.74h11.78q.38,0,1.36-.11a7.24,7.24,0,0,0,2.34-.79,13.18,13.18,0,0,0,3-2.18,20.27,20.27,0,0,0,3.3-4.28l24-40.81H475Z" transform="translate(-139.98 -324.89)"/><path class="cls-3" d="M142.67,389.81H140l.34-1.58h7.15l-.34,1.58h-2.57l-1.46,7h-1.9Z" transform="translate(-139.98 -324.89)"/><path class="cls-3" d="M150.34,388.23h4.09c1.55,0,2.55.59,2.55,2.24a2.29,2.29,0,0,1-2,2.3v0a1.38,1.38,0,0,1,.89,1.51c0,.38-.06,1-.06,1.49a3,3,0,0,0,.12,1h-1.83a2.48,2.48,0,0,1-.08-.58c0-.58.1-1.16.1-1.74,0-.83-.5-1-1.23-1h-1.78l-.71,3.35h-1.88Zm1.08,3.87h1.74c1,0,1.94-.4,1.94-1.36s-.66-1.05-1.39-1.05h-1.79Z" transform="translate(-139.98 -324.89)"/><path class="cls-3" d="M163.31,388.23h1.93l1.43,8.56h-1.87l-.28-1.91h-3.2l-1.08,1.91h-2Zm-1.25,5.25h2.29l-.42-3.41h0Z" transform="translate(-139.98 -324.89)"/><path class="cls-3" d="M171.07,388.23H173l2.33,6.09h0l1.22-6.09h1.73l-1.81,8.56h-1.88l-2.35-6h0l-1.22,6h-1.76Z" transform="translate(-139.98 -324.89)"/><path class="cls-3" d="M182,394c-.06,1.21.76,1.58,1.85,1.58.76,0,1.63-.36,1.63-1.21s-1.12-1-2.17-1.33-2.16-.84-2.16-2.3c0-1.91,1.74-2.66,3.39-2.66s3.21.78,3.21,2.76h-1.79c0-1-.66-1.29-1.54-1.29-.72,0-1.5.26-1.5,1.07s1.45,1.08,2,1.21c1.34.35,2.29.86,2.29,2.4,0,2.05-1.86,2.83-3.49,2.83-2.39,0-3.56-1-3.56-3Z" transform="translate(-139.98 -324.89)"/><path class="cls-3" d="M191.56,388.23H195c1.73,0,3,.61,3,2.5a3.08,3.08,0,0,1-3.33,3H192.3l-.65,3.07h-1.88Zm1.06,4h1.92a1.37,1.37,0,0,0,1.55-1.5c0-.86-.67-1.07-1.33-1.07h-1.61Z" transform="translate(-139.98 -324.89)"/><path class="cls-3" d="M200.18,393.21c0-2.77,1.79-5.18,4.68-5.18,2.31,0,3.8,1.27,3.8,3.67,0,2.82-1.68,5.3-4.68,5.3A3.45,3.45,0,0,1,200.18,393.21Zm1.88,0c0,1.17.58,2.21,1.94,2.21,1.85,0,2.77-2,2.77-3.59,0-1.2-.52-2.22-1.91-2.22C202.94,389.61,202.07,391.56,202.07,393.21Z" transform="translate(-139.98 -324.89)"/><path class="cls-3" d="M212.75,388.23h4.09c1.55,0,2.55.59,2.55,2.24a2.29,2.29,0,0,1-2,2.3v0a1.38,1.38,0,0,1,.89,1.51c0,.38-.06,1-.06,1.49a3,3,0,0,0,.12,1h-1.83a2.48,2.48,0,0,1-.08-.58c0-.58.1-1.16.1-1.74,0-.83-.5-1-1.24-1h-1.77l-.71,3.35h-1.88Zm1.08,3.87h1.74c1,0,1.94-.4,1.94-1.36s-.66-1.05-1.39-1.05h-1.79Z" transform="translate(-139.98 -324.89)"/><path class="cls-3" d="M224.91,389.81h-2.69l.34-1.58h7.15l-.34,1.58h-2.57l-1.46,7h-1.9Z" transform="translate(-139.98 -324.89)"/><path class="cls-3" d="M237.85,388.23h1.94l2.33,6.09h0l1.22-6.09h1.73l-1.81,8.56H241.4l-2.35-6h0l-1.22,6H236Z" transform="translate(-139.98 -324.89)"/><path class="cls-3" d="M251,388.23H253l1.43,8.56h-1.87l-.28-1.91H249L248,396.79h-2Zm-1.25,5.25h2.29l-.42-3.41h0Z" transform="translate(-139.98 -324.89)"/><path class="cls-3" d="M260.37,389.81h-2.69l.34-1.58h7.15l-.34,1.58h-2.57l-1.46,7h-1.9Zm-1.49,7.58h1.74l-.18.88c-.25,1-.91,1.14-1.86,1.13l.1-.44a.83.83,0,0,0,.78-.44h-.8Z" transform="translate(-139.98 -324.89)"/><path class="cls-3" d="M268.06,388.23H270l-1.81,8.56h-1.9Z" transform="translate(-139.98 -324.89)"/><path class="cls-3" d="M272.21,393.21c0-2.77,1.79-5.18,4.68-5.18,2.31,0,3.8,1.27,3.8,3.67,0,2.82-1.68,5.3-4.68,5.3A3.45,3.45,0,0,1,272.21,393.21Zm1.88,0c0,1.17.58,2.21,1.94,2.21,1.85,0,2.77-2,2.77-3.59,0-1.2-.52-2.22-1.91-2.22C275,389.61,274.09,391.56,274.09,393.21Z" transform="translate(-139.98 -324.89)"/><path class="cls-3" d="M284.78,388.23h1.94l2.33,6.09h0l1.22-6.09H292l-1.81,8.56h-1.88l-2.35-6h0l-1.22,6H283Z" transform="translate(-139.98 -324.89)"/><path class="cls-3" d="M298,388.23h1.93l1.43,8.56h-1.87l-.28-1.91H296l-1.08,1.91h-2Zm-1.25,5.25H299l-.42-3.41h0Z" transform="translate(-139.98 -324.89)"/><path class="cls-3" d="M305.72,388.23h1.9l-1.46,7h4.14l-.33,1.58h-6Z" transform="translate(-139.98 -324.89)"/><path class="cls-3" d="M319.88,394c-.06,1.21.76,1.58,1.85,1.58.76,0,1.63-.36,1.63-1.21s-1.12-1-2.17-1.33-2.16-.84-2.16-2.3c0-1.91,1.74-2.66,3.39-2.66s3.21.78,3.21,2.76h-1.79c0-1-.66-1.29-1.54-1.29-.72,0-1.5.26-1.5,1.07s1.45,1.08,2,1.21c1.34.35,2.29.86,2.29,2.4,0,2.05-1.86,2.83-3.49,2.83-2.39,0-3.56-1-3.56-3Zm.65,3.44h1.74l-.18.88c-.25,1-.91,1.14-1.86,1.13l.1-.44a.84.84,0,0,0,.78-.44h-.8Z" transform="translate(-139.98 -324.89)"/><path class="cls-3" d="M329.5,388.23h1.9l-1.81,8.56h-1.89Z" transform="translate(-139.98 -324.89)"/><path class="cls-3" d="M340.22,388.23h1.9l-1.81,8.56h-1.89Z" transform="translate(-139.98 -324.89)"/><path class="cls-3" d="M345.69,388.23h1.94l2.33,6.09h0l1.22-6.09h1.73l-1.81,8.56h-1.88l-2.35-6h0l-1.22,6h-1.76Z" transform="translate(-139.98 -324.89)"/><path class="cls-3" d="M358.08,389.81h-2.69l.34-1.58h7.15l-.34,1.58H360l-1.46,7h-1.89Z" transform="translate(-139.98 -324.89)"/><path class="cls-3" d="M365.75,388.23h6.54l-.32,1.58h-4.65l-.38,1.83h4.31l-.31,1.46h-4.31l-.44,2.1h4.73l-.34,1.58h-6.61Z" transform="translate(-139.98 -324.89)"/><path class="cls-3" d="M375.67,388.23h4.09c1.55,0,2.55.59,2.55,2.24a2.29,2.29,0,0,1-2,2.3v0a1.38,1.38,0,0,1,.89,1.51c0,.38-.06,1-.06,1.49a3,3,0,0,0,.12,1h-1.83a2.48,2.48,0,0,1-.08-.58c0-.58.1-1.16.1-1.74,0-.83-.5-1-1.24-1h-1.77l-.71,3.35h-1.88Zm1.08,3.87h1.74c1,0,1.94-.4,1.94-1.36s-.66-1.05-1.39-1.05h-1.79Z" transform="translate(-139.98 -324.89)"/><path class="cls-3" d="M386.27,388.23h1.94l2.33,6.09h0l1.22-6.09h1.73l-1.81,8.56h-1.88l-2.35-6h0l-1.22,6h-1.76Z" transform="translate(-139.98 -324.89)"/><path class="cls-3" d="M399.45,388.23h1.93l1.43,8.56h-1.87l-.28-1.91h-3.2l-1.08,1.91h-2Zm-1.25,5.25h2.29l-.42-3.41h0Z" transform="translate(-139.98 -324.89)"/><path class="cls-3" d="M408.79,389.81H406.1l.34-1.58h7.15l-.34,1.58h-2.57l-1.46,7h-1.89Zm-1.49,7.58H409l-.18.88c-.25,1-.91,1.14-1.86,1.13l.1-.44a.83.83,0,0,0,.78-.44h-.8Z" transform="translate(-139.98 -324.89)"/><path class="cls-3" d="M416.47,388.23h1.9l-1.81,8.56h-1.89Z" transform="translate(-139.98 -324.89)"/><path class="cls-3" d="M420.62,393.21c0-2.77,1.79-5.18,4.68-5.18,2.31,0,3.8,1.27,3.8,3.67,0,2.82-1.68,5.3-4.68,5.3A3.45,3.45,0,0,1,420.62,393.21Zm1.88,0c0,1.17.58,2.21,1.94,2.21,1.85,0,2.77-2,2.77-3.59,0-1.2-.52-2.22-1.91-2.22C423.38,389.61,422.51,391.56,422.51,393.21Z" transform="translate(-139.98 -324.89)"/><path class="cls-3" d="M433.2,388.23h1.94l2.33,6.09h0l1.22-6.09h1.73l-1.81,8.56h-1.88l-2.35-6h0l-1.22,6h-1.76Z" transform="translate(-139.98 -324.89)"/><path class="cls-3" d="M446.38,388.23h1.93l1.43,8.56h-1.87l-.28-1.91h-3.2l-1.08,1.91h-2Zm-1.25,5.25h2.29l-.42-3.41h0Z" transform="translate(-139.98 -324.89)"/><path class="cls-3" d="M454.14,388.23H456l-1.46,7h4.14l-.34,1.58h-6Z" transform="translate(-139.98 -324.89)"/></svg>